<svg xmlns="http://www.w3.org/2000/svg" viewBox="0 0 177 57.7" fill="#e60000">
    <path d="M71.28,37.55a5.91,5.91,0,0,1-2.58-2.22,6.41,6.41,0,0,1-1-3.29h3A3.94,3.94,0,0,0,72,34.7a4.59,4.59,0,0,0,3.15,1,4.9,4.9,0,0,0,2.7-.69,2.38,2.38,0,0,0,1.07-2,2,2,0,0,0-.57-1.52,3.49,3.49,0,0,0-1.51-.83c-.63-.19-1.57-.38-2.76-.63h-.13a11.62,11.62,0,0,1-3-.83,5.68,5.68,0,0,1-2.08-1.58,4.75,4.75,0,0,1-.75-2.79A4.9,4.9,0,0,1,69,22a6,6,0,0,1,2.32-2,8.26,8.26,0,0,1,3.4-.7,7.69,7.69,0,0,1,3.51.76,5.66,5.66,0,0,1,2.46,2,5.14,5.14,0,0,1,.94,3h-3a3.43,3.43,0,0,0-1.25-2.28,4.21,4.21,0,0,0-2.7-.89,4.41,4.41,0,0,0-2.58.7,2.29,2.29,0,0,0-.94,2A1.9,1.9,0,0,0,71.72,26a4.25,4.25,0,0,0,1.51.83c.63.19,1.51.38,2.7.63A16.22,16.22,0,0,1,79,28.3a4.83,4.83,0,0,1,2.14,1.58A4.37,4.37,0,0,1,82,32.67a5.36,5.36,0,0,1-.88,2.92,5.66,5.66,0,0,1-2.46,2,8,8,0,0,1-3.51.69A7.4,7.4,0,0,1,71.28,37.55Z"/>
    <path d="M94.85,25.25a5.93,5.93,0,0,1,2.26,2.41,7.76,7.76,0,0,1,.82,3.74A7.28,7.28,0,0,1,97.11,35a6.16,6.16,0,0,1-2.26,2.47,6.3,6.3,0,0,1-3.27.89,5.65,5.65,0,0,1-3-.76,5.18,5.18,0,0,1-1.83-2l.38-.64v8.63H84.29v-19h2.45L87.31,28l-.63-.64a7.41,7.41,0,0,1,1.89-2.09,5.35,5.35,0,0,1,3-.76A6.45,6.45,0,0,1,94.85,25.25ZM89,27.41A3.46,3.46,0,0,0,87.62,29a5.67,5.67,0,0,0-.5,2.35,6,6,0,0,0,.5,2.41A4.47,4.47,0,0,0,89,35.4a3.74,3.74,0,0,0,2.07.57,3.91,3.91,0,0,0,2.07-.57,3.75,3.75,0,0,0,1.39-1.59,5.75,5.75,0,0,0,0-4.69,3.43,3.43,0,0,0-1.39-1.59A3.91,3.91,0,0,0,91.08,27,2.85,2.85,0,0,0,89,27.41Z"/>
    <path d="M103,37.49A5.84,5.84,0,0,1,100.57,35a8,8,0,0,1,0-7.3,5.68,5.68,0,0,1,2.45-2.4,7.39,7.39,0,0,1,3.58-.89,7.08,7.08,0,0,1,3.59.89,6,6,0,0,1,2.45,2.4,8.13,8.13,0,0,1,0,7.36,6.13,6.13,0,0,1-2.45,2.47,7.55,7.55,0,0,1-3.59.89A7.87,7.87,0,0,1,103,37.49Zm5.66-2.16a3.33,3.33,0,0,0,1.38-1.58,5.52,5.52,0,0,0,.5-2.35,5.44,5.44,0,0,0-.5-2.34,3.36,3.36,0,0,0-1.38-1.59,3.94,3.94,0,0,0-2.08-.57,3.79,3.79,0,0,0-2.07.57,3.36,3.36,0,0,0-1.38,1.59,5.44,5.44,0,0,0-.51,2.34,5.52,5.52,0,0,0,.51,2.35,3.68,3.68,0,0,0,1.38,1.58,3.93,3.93,0,0,0,2.07.57A3.8,3.8,0,0,0,108.68,35.33Z"/>
    <path d="M118.29,24.62,118.8,28l-.57-.64a4.93,4.93,0,0,1,1.57-2,4.36,4.36,0,0,1,2.77-.7h.63v2.66h-1.26a3,3,0,0,0-2.58,1.15,5.38,5.38,0,0,0-.81,3v6.84h-2.83V24.62Z"/>
    <path d="M125.08,20.75h2.83v3.8h3.27V27h-3.27v7.1a1.63,1.63,0,0,0,.32,1.14c.18.25.56.32,1.06.32h2.2v2.53h-2.76a3.83,3.83,0,0,1-2.77-.88,3.93,3.93,0,0,1-.88-2.79Z"/>
    <path d="M136.21,37.55a5.91,5.91,0,0,1-2.58-2.22,6.32,6.32,0,0,1-1-3.29h3a3.86,3.86,0,0,0,1.32,2.66,4.55,4.55,0,0,0,3.14,1,4.9,4.9,0,0,0,2.7-.69,2.35,2.35,0,0,0,1.07-2,2.08,2.08,0,0,0-.56-1.52,3.49,3.49,0,0,0-1.51-.83c-.63-.19-1.57-.38-2.77-.63h-.12a11.82,11.82,0,0,1-3-.83,5.73,5.73,0,0,1-2.07-1.58,4.75,4.75,0,0,1-.75-2.79,5,5,0,0,1,.81-2.86,6,6,0,0,1,2.33-2,8.18,8.18,0,0,1,3.39-.7,7.73,7.73,0,0,1,3.52.76,5.57,5.57,0,0,1,2.45,2,5.08,5.08,0,0,1,1,3h-3a3.4,3.4,0,0,0-1.26-2.28,4.19,4.19,0,0,0-2.7-.89,4.41,4.41,0,0,0-2.58.7,2.31,2.31,0,0,0-.94,2,1.91,1.91,0,0,0,.57,1.46,4.16,4.16,0,0,0,1.51.83c.62.19,1.5.38,2.7.63a16.43,16.43,0,0,1,3.08.83,4.83,4.83,0,0,1,2.14,1.58,4.36,4.36,0,0,1,.81,2.79,5.27,5.27,0,0,1-.88,2.92,5.57,5.57,0,0,1-2.45,2,8.05,8.05,0,0,1-3.52.69A7.51,7.51,0,0,1,136.21,37.55Z"/>
    <path d="M152.05,37.49a6,6,0,0,1-2.45-2.41,7.7,7.7,0,0,1-.88-3.68,7.66,7.66,0,0,1,.81-3.68,6.11,6.11,0,0,1,2.33-2.4,6.75,6.75,0,0,1,3.46-.89,7.43,7.43,0,0,1,3.45.76,5.45,5.45,0,0,1,2.33,2.28A7,7,0,0,1,162,30.9v.5a1.6,1.6,0,0,1-.07.57H151.73v.13a5.1,5.1,0,0,0,.51,2,3.31,3.31,0,0,0,1.32,1.33,3.81,3.81,0,0,0,1.94.51,3.44,3.44,0,0,0,2.2-.64,2.91,2.91,0,0,0,1.2-1.77h2.89A5.54,5.54,0,0,1,160.72,36a6.87,6.87,0,0,1-2.07,1.71,7.19,7.19,0,0,1-2.89.63A6.78,6.78,0,0,1,152.05,37.49Zm1.69-10.34a3.13,3.13,0,0,0-1.25,1.15,3.61,3.61,0,0,0-.63,1.64h7.23A3.53,3.53,0,0,0,158,27.6a3.67,3.67,0,0,0-2.52-.83A2.68,2.68,0,0,0,153.74,27.15Z"/>
    <path d="M167.07,37.49a6,6,0,0,1-2.45-2.41,7.7,7.7,0,0,1-.88-3.68,7.66,7.66,0,0,1,.81-3.68,6.11,6.11,0,0,1,2.33-2.4,6.77,6.77,0,0,1,3.46-.89,7.43,7.43,0,0,1,3.45.76,5.45,5.45,0,0,1,2.33,2.28A6.92,6.92,0,0,1,177,30.9v.5a1.85,1.85,0,0,1-.06.57H166.75v.13a5.1,5.1,0,0,0,.51,2,3.31,3.31,0,0,0,1.32,1.33,3.82,3.82,0,0,0,1.95.51,3.46,3.46,0,0,0,2.2-.64,2.93,2.93,0,0,0,1.19-1.77h2.89A5.54,5.54,0,0,1,175.74,36a6.63,6.63,0,0,1-2.07,1.71,7.16,7.16,0,0,1-2.89.63A6.93,6.93,0,0,1,167.07,37.49Zm1.7-10.34a3.1,3.1,0,0,0-1.26,1.15,3.61,3.61,0,0,0-.63,1.64h7.23A3.48,3.48,0,0,0,173,27.6a3.67,3.67,0,0,0-2.52-.83A2.64,2.64,0,0,0,168.77,27.15Z"/>
    <path d="M28.6,0A28.89,28.89,0,0,0,7.22,48L20.55,32.09l9.18-14.34L24.39,15l-7.73,7a1.73,1.73,0,0,1-2.52-.12,1.76,1.76,0,0,1,.13-2.54l8.55-7.8a1.79,1.79,0,0,1,2-.25l10.24,5.2a30.71,30.71,0,0,1,3.08,2.72L41.61,26l7.16-4.31a1.77,1.77,0,0,1,2.46.63,1.79,1.79,0,0,1-.63,2.47L42,30a1.8,1.8,0,0,1-1,.26,1.77,1.77,0,0,1-1.51-.83l-3.77-6L29.67,33.1l6.72,1.58A2.21,2.21,0,0,1,38,36a2.39,2.39,0,0,1-.26,2.15L30.11,50.41a2.28,2.28,0,0,1-3,.7,2.31,2.31,0,0,1-.88-3.17l6-9.45-8.74-2L10.68,51.33A28.32,28.32,0,0,0,28.6,57.7,28.85,28.85,0,0,0,28.6,0ZM40.92,16.42a4.82,4.82,0,1,1,4.77-4.82A4.79,4.79,0,0,1,40.92,16.42Z"/>
</svg>